<svg width="33" height="40" viewBox="0 0 33 40" fill="none" xmlns="http://www.w3.org/2000/svg">
<path fill-rule="evenodd" clip-rule="evenodd" d="M17.2988 0H17.2974C17.0233 0 16.7466 0.0142359 16.4704 0.0361658C14.638 0.181691 13.288 0.791429 12.3393 1.74628C11.4013 2.6905 10.9377 3.88981 10.7152 5.06848C10.4935 6.2437 10.5006 7.45629 10.5488 8.48748C10.5678 8.89289 10.5914 9.25437 10.6124 9.57655C10.648 10.1212 10.6761 10.5533 10.6624 10.8947C10.551 12.4912 10.2389 13.6969 9.17821 15.2277C7.7577 16.9319 5.72659 19.7264 4.74833 22.6905C4.32418 23.97 4.08484 25.3272 4.21044 26.6607C4.00673 26.8877 3.8338 27.1228 3.68924 27.3228L3.62487 27.4121C3.48373 27.6078 3.37553 27.7579 3.26601 27.8848C3.21892 27.9277 3.14079 27.9783 2.98457 28.0463C2.89763 28.0842 2.80288 28.1209 2.68251 28.1671L2.67833 28.1688L2.6769 28.1693C2.56324 28.213 2.42961 28.2645 2.29111 28.324L2.28562 28.3264C2.25756 28.3387 2.22795 28.3515 2.19697 28.3648L2.19486 28.3656C1.72604 28.5674 0.946964 28.9024 0.491451 29.8184L0.487551 29.8263L0.483799 29.8342C0.287366 30.2499 0.183614 30.707 0.191198 31.1758C0.19188 31.5468 0.239179 31.9111 0.290618 32.1712L0.309962 32.3042C0.348124 32.5658 0.377925 32.7699 0.391755 32.9547C0.406785 33.1555 0.394861 33.254 0.384189 33.297C-0.019876 34.4188 -0.17656 35.4567 0.268988 36.3316L0.271404 36.3363C0.729117 37.2217 1.6534 37.523 2.24148 37.7146L2.287 37.7295L2.31665 37.7368C2.81922 37.8619 3.41228 37.9325 3.95891 37.9976C4.17141 38.0229 4.37694 38.0473 4.56736 38.0738C5.3098 38.1771 5.9599 38.3205 6.50251 38.6149L6.51295 38.6205L6.52347 38.6259C8.06771 39.4091 9.77794 39.8329 11.2537 39.4434C12.1625 39.2365 12.9521 38.6912 13.4711 37.9275C13.8335 37.8857 14.1948 37.81 14.5409 37.7375L14.6595 37.7127C15.2262 37.5946 15.8385 37.4734 16.5894 37.4257L16.5978 37.4251L16.6064 37.4244C17.0135 37.3904 17.4885 37.4633 18.1616 37.5667L18.2631 37.5824C18.7737 37.6606 19.3627 37.7458 20.001 37.759L20.0501 37.8899L20.0932 37.9333C20.8927 39.4154 22.3365 40.1068 23.8445 39.9866C25.3559 39.8677 26.8485 38.9492 27.9995 37.6061L28.0059 37.5986L28.0121 37.591C28.403 37.1134 28.9494 36.7458 29.5941 36.4007C29.8558 36.2606 30.1177 36.1322 30.3872 36.0001L30.5757 35.9076C30.8994 35.7482 31.2368 35.5781 31.5452 35.3914C32.1693 35.0298 32.9402 34.3909 32.9961 33.3293C33.048 32.4059 32.5749 31.5878 31.868 30.7585V30.5732L31.6442 30.3476C31.6123 30.3027 31.5623 30.21 31.5035 30.031C31.4368 29.8282 31.3792 29.5819 31.3088 29.2666C31.1804 28.6564 30.987 27.7483 30.2421 27.1186L30.1128 27.0094C30.5944 24.9843 30.2779 23.0118 29.6179 21.2698C28.724 18.8873 27.1784 16.843 26.0396 15.4761C24.7515 13.837 23.745 12.5564 23.766 10.667C23.7677 10.5333 23.7698 10.3933 23.7721 10.2479C23.7977 8.58977 23.8344 6.21765 23.1774 4.208C22.8129 3.09278 22.2176 2.02628 21.2394 1.24038C20.252 0.447221 18.9527 0.00264689 17.2988 0ZM16.538 0.903054C16.799 0.882332 17.0521 0.869575 17.2973 0.869575C23.0471 0.878776 22.9605 6.74818 22.9088 10.2493C22.9068 10.389 22.9048 10.5249 22.9031 10.6565C22.8784 12.8566 24.0582 14.3567 25.288 15.9205C25.3155 15.9556 25.3431 15.9907 25.3707 16.0258C26.4938 17.373 27.9681 19.3307 28.8111 21.5785C29.5024 23.4023 29.7666 25.4301 29.0848 27.4675C29.1926 27.472 29.2969 27.5074 29.3853 27.5696C29.4423 27.6296 29.4987 27.6628 29.5536 27.6949C29.5978 27.7209 29.6411 27.7464 29.6827 27.7848H29.6875C30.1778 28.1993 30.3313 28.8131 30.4657 29.4523C30.6049 30.0757 30.7315 30.6098 31.0004 30.9286L31.0051 30.9334V31.088C31.8182 31.9888 32.1709 32.644 32.1345 33.2817C32.1029 33.8939 31.6584 34.3243 31.1079 34.6415C30.7825 34.8393 30.4077 35.023 30.0152 35.2155C29.0818 35.6729 28.0491 36.1791 27.3464 37.0377C26.2945 38.2652 24.9958 39.0241 23.7763 39.1198C22.5567 39.217 21.4147 38.6526 20.7962 37.4124L20.7914 37.4076C20.7689 37.3474 20.748 37.2961 20.7286 37.2488C20.6788 37.1266 20.6397 37.0306 20.6111 36.8767C19.7604 36.9339 18.9679 36.8116 18.2453 36.6999C17.6203 36.6034 17.0477 36.515 16.5348 36.5578C15.6746 36.6125 14.9851 36.7566 14.3891 36.881C13.8563 36.9923 13.3983 37.088 12.96 37.0903C12.5836 37.8587 11.8813 38.4135 11.0492 38.5985C9.86284 38.9172 8.37598 38.592 6.91121 37.8491C6.02167 37.3666 4.974 37.2421 3.99759 37.126C3.47387 37.0637 2.97065 37.0039 2.52335 36.8926C1.88273 36.6837 1.31169 36.467 1.03646 35.9345C0.76123 35.3941 0.810263 34.6528 1.20413 33.5687C1.31492 33.2131 1.2457 32.7398 1.16235 32.1699C1.15526 32.1214 1.14807 32.0722 1.14086 32.0223C1.09657 31.8054 1.05386 31.485 1.05386 31.1678C1.04753 30.8362 1.1203 30.5093 1.26266 30.208C1.57306 29.5838 2.08299 29.3619 2.55862 29.1548C2.58228 29.1445 2.60586 29.1343 2.62933 29.124C2.75325 29.0707 2.87459 29.024 2.9918 28.9789C3.34137 28.8443 3.65428 28.7239 3.89002 28.4862C4.03734 28.3196 4.17772 28.1247 4.32344 27.9223C4.51095 27.6619 4.70732 27.3891 4.93875 27.1488C4.98135 27.0656 5.04059 26.9923 5.11274 26.9335C4.91818 25.6501 5.12698 24.2918 5.56672 22.9655C6.49837 20.1421 8.46295 17.4335 9.86284 15.758C11.0492 14.0569 11.4035 12.6843 11.5237 10.9434C11.5405 10.555 11.5072 10.0396 11.4689 9.44672C11.2729 6.41166 10.9457 1.34718 16.538 0.903054ZM18.1547 6.2979H18.134C17.7948 6.29824 17.4648 6.4086 17.1944 6.61515C16.8823 6.81652 16.6436 7.11476 16.5143 7.46487C16.3457 7.85008 16.2646 8.26839 16.277 8.68923V8.72115C16.2801 8.82784 16.2895 8.93437 16.3055 9.03993C16.4656 9.10393 16.6687 9.16846 16.8714 9.2328C17.0073 9.27602 17.1431 9.31915 17.2656 9.36202C17.2466 9.22167 17.2372 9.07819 17.2341 8.93637V8.90602C17.2442 8.68674 17.2924 8.47092 17.3764 8.26836C17.439 8.06652 17.5504 7.88354 17.7007 7.73589C17.8367 7.57328 17.9679 7.52545 18.1151 7.52545H18.1404C18.297 7.52545 18.4273 7.62862 18.5588 7.73279L18.5628 7.73589C18.5939 7.78684 18.6227 7.83162 18.6495 7.87322C18.734 8.00475 18.7981 8.10447 18.8522 8.26677C18.9196 8.47236 18.9522 8.68794 18.9487 8.90445V8.93637C18.9392 9.15637 18.8933 9.37315 18.8095 9.57724C18.7738 9.64037 18.7034 9.70829 18.636 9.77342C18.5929 9.81507 18.5508 9.85551 18.52 9.8929C18.6389 9.9176 18.7553 9.95281 18.868 9.99812C18.9637 10.0755 19.0657 10.1134 19.175 10.1541C19.2211 10.1713 19.2684 10.1888 19.3173 10.2101C19.3651 10.2292 19.4117 10.2516 19.4564 10.2771C19.6047 10.1249 19.7195 9.9429 19.7934 9.74298C19.9468 9.38776 20.0274 9.00489 20.0306 8.61749L20.0369 8.65575C20.0377 8.66714 20.0398 8.67838 20.0433 8.68923V8.52184C20.0433 8.53778 20.0409 8.55373 20.0386 8.56967C20.0362 8.5856 20.0338 8.60155 20.0338 8.61749C20.0211 8.19503 19.9373 7.87618 19.7712 7.46328C19.6004 7.14284 19.379 6.82878 19.0784 6.61356C18.781 6.39675 18.4916 6.2979 18.1547 6.2979ZM13.5057 6.39196H13.4488C13.1988 6.39196 12.99 6.49877 12.7876 6.7108C12.5797 6.95966 12.4271 7.25048 12.3399 7.56371C12.2302 7.90718 12.1872 8.26878 12.2134 8.62865C12.2258 8.99576 12.309 9.35698 12.4586 9.69203C12.5835 9.91881 12.7291 10.1333 12.8936 10.3329C12.9705 10.3145 13.0416 10.2773 13.1008 10.2245C13.1576 10.1604 13.2075 10.1277 13.2627 10.0913C13.2981 10.0679 13.3359 10.0432 13.3792 10.0077C13.3571 9.99812 13.3412 9.98377 13.3254 9.96942C13.2178 9.86099 13.1356 9.75577 13.0629 9.54211C13.0554 9.51872 13.0483 9.49672 13.0416 9.47568C12.9864 9.30446 12.9532 9.20133 12.9363 9.00967V8.98576C12.9176 8.80958 12.9299 8.6315 12.9727 8.45966C12.996 8.30146 13.0616 8.15265 13.1625 8.02922C13.251 7.88255 13.3444 7.82835 13.4567 7.81879H13.4899C13.5425 7.81533 13.5952 7.82259 13.645 7.84011C13.6947 7.85764 13.7404 7.88509 13.7794 7.92082C13.9021 8.03729 13.9926 8.18399 14.042 8.34647C14.053 8.38167 14.0634 8.41398 14.0732 8.44433C14.1224 8.59687 14.1559 8.70054 14.1716 8.87732V8.90124C14.1875 9.03993 14.1859 9.18341 14.1669 9.32689C14.212 9.30211 14.2573 9.27594 14.3036 9.24924C14.4503 9.16454 14.6057 9.0748 14.7885 9.00811C14.81 9.00324 14.831 8.99645 14.8526 8.9895C14.8741 8.98254 14.8962 8.97541 14.9199 8.96984V8.84228C14.9325 8.73706 14.9341 8.63184 14.9231 8.41821V8.41184C14.9024 7.98618 14.8234 7.66574 14.681 7.3485C14.5545 7.06632 14.3678 6.81284 14.1369 6.60718C13.9328 6.46848 13.7303 6.39196 13.5057 6.39196ZM17.5393 9.74777C16.7753 9.21533 16.141 9.11167 15.6159 9.11167H15.6174C15.3454 9.11167 15.1002 9.15793 14.8803 9.21533C14.2428 9.4242 13.8205 9.85142 13.5532 10.1734V10.1782H13.55C13.4978 10.2245 13.4361 10.2691 13.2717 10.3871C13.2101 10.4262 13.1365 10.4816 13.0497 10.5468C12.9069 10.6543 12.728 10.7888 12.5077 10.9227C12.1945 11.13 12.0916 11.452 12.2023 11.8793C12.3131 12.1949 12.6548 12.619 13.2874 13.0112H13.2954V13.0191C13.5359 13.1487 13.7287 13.3162 13.9126 13.4761C14.0298 13.578 14.1433 13.6767 14.2634 13.7604C14.4275 13.8747 14.5975 13.9801 14.7728 14.0761C14.9995 14.1592 15.2405 14.1955 15.4814 14.1829C16.1399 14.2221 16.6276 13.9815 17.0583 13.769L17.0822 13.7573C17.3073 13.648 17.5149 13.5102 17.7219 13.373C17.9134 13.246 18.1044 13.1194 18.3081 13.016V13.0128C19.1733 12.6955 19.7949 12.1647 19.9895 11.6704C20.0383 11.5509 20.0613 11.4222 20.0569 11.293C20.0525 11.1639 20.021 11.0371 19.9642 10.9212V11.13C19.8488 10.918 19.6115 10.7107 19.2081 10.4939H19.2034C19.0769 10.4459 18.9613 10.4027 18.8546 10.3628C18.2544 10.1386 17.9327 10.0185 17.5393 9.74777ZM22.7892 19.6574C21.9367 18.0665 20.6111 14.7856 20.0449 12.5265H20.0433C19.7127 13.0016 19.1306 13.4273 18.3919 13.6425H18.384C18.1915 13.7007 17.9943 13.8242 17.7787 13.9591C17.6045 14.0682 17.4185 14.1847 17.2134 14.2802C16.7911 14.4938 16.2881 14.7074 15.6364 14.7074C15.5852 14.7074 15.5324 14.7033 15.4759 14.6989L15.4624 14.6978C14.8312 14.6978 14.4089 14.4843 14.0767 14.1638C13.9151 14.0614 13.7715 13.9333 13.6268 13.8043C13.4742 13.6683 13.3205 13.5313 13.1435 13.4225C13.0673 13.3509 12.9223 13.2566 12.812 13.1849C12.7575 13.1494 12.7114 13.1195 12.6863 13.1004C12.5638 15.4425 11.2499 18.2955 10.2986 20.3608C10.1077 20.7754 9.93135 21.1582 9.78217 21.4988C9.16648 22.9514 8.81963 24.5053 8.75881 26.0838C7.14848 23.9205 8.32534 21.1369 8.95173 19.9396C9.65568 18.6021 9.76638 18.2833 9.5971 18.3869C8.96286 19.4279 7.96943 21.0859 7.58195 22.7917C7.37945 23.6845 7.34468 24.5629 7.60568 25.4142C7.86503 26.2527 8.42818 27.0021 9.42471 27.6397C10.7803 28.4783 11.7072 29.3201 12.253 30.0645C12.7987 30.8075 12.9695 31.493 12.7987 31.9186C12.7074 32.154 12.5295 32.3447 12.302 32.4511C12.1011 32.5101 11.8543 32.5579 11.5664 32.5579C11.7369 32.712 11.8836 32.8909 12.0015 33.0888C12.2482 33.3439 12.4618 33.6294 12.6373 33.9385C15.4339 35.858 18.7241 35.115 21.0968 33.406C21.1061 33.3736 21.1155 33.3412 21.1248 33.3088C21.351 32.5264 21.571 31.7652 21.6014 31.2538V31.2491C21.6567 30.1124 21.72 29.1192 21.9256 28.2695C22.1328 27.4436 22.4998 26.8044 23.18 26.3771C23.264 26.3638 23.3489 26.3331 23.432 26.303C23.4584 26.2934 23.4847 26.284 23.5105 26.2751C23.5179 26.1739 23.5251 26.1347 23.5361 26.0758C23.537 26.0707 23.5381 26.0653 23.539 26.0599C23.7352 24.7829 24.8914 24.6809 26.3388 25.3186C27.7356 25.9547 28.2623 26.5254 28.0234 27.2699H28.0488C28.0803 27.2699 28.112 27.2694 28.1437 27.2688C28.2069 27.2678 28.2702 27.2667 28.3335 27.2699V27.3384C28.623 26.3835 28.0203 25.7394 26.3879 24.8881C26.2906 24.8783 26.1957 24.8378 26.1023 24.7978C26.0894 24.7923 26.0765 24.7867 26.0636 24.7813C26.2835 23.879 26.236 22.9718 26.0303 22.119C25.5859 20.2298 24.36 18.575 23.4268 17.7237C23.2543 17.7237 23.2733 17.9389 23.6213 18.2578C24.4802 19.0533 26.3657 21.9165 25.3439 24.5805C25.0544 24.5071 24.7792 24.4705 24.5324 24.4784C24.1417 22.3023 23.2417 20.5088 22.7892 19.6574ZM24.8962 29.0028C24.0437 28.7923 23.5596 27.7641 23.5011 26.8075V26.8108L23.4299 26.8458C22.9031 27.144 22.6058 27.6732 22.416 28.4145C22.2277 29.1782 22.1661 30.1682 22.1076 31.3065C22.0682 31.9328 21.8556 32.658 21.6359 33.4074C21.5465 33.7129 21.4558 34.0223 21.3751 34.3307C21.0968 35.3909 20.9544 36.3872 21.2866 37.025L21.2945 37.0297C21.8276 38.1424 22.7339 38.5458 23.7842 38.4613C24.8377 38.38 26.0272 37.7376 27.0048 36.5626C27.7878 35.6102 28.8814 35.0806 29.8099 34.6309C30.2149 34.4348 30.5885 34.2539 30.8912 34.0597C31.3863 33.7424 31.6553 33.5304 31.679 33.1127L31.6837 33.1302V33.1015L31.679 33.1127C31.6932 32.7397 31.4417 32.1354 30.673 31.2953C30.2914 30.864 30.1731 30.2987 30.0477 29.6991C30.0404 29.6649 30.0333 29.6303 30.026 29.5958C29.89 29.0443 29.7365 28.5166 29.4075 28.1993L29.4028 28.1945C28.9757 27.7832 28.5613 27.7562 28.063 27.7673L27.7292 27.7832C27.1645 28.4719 25.8263 29.2164 24.8962 29.0028ZM6.4114 26.8857H6.39561C5.9479 26.8857 5.64739 27.1009 5.34685 27.4214C5.17881 27.6014 5.02297 27.8161 4.86206 28.0378C4.68521 28.2815 4.50224 28.5336 4.29021 28.7573V28.7605H4.28705C3.97288 29.069 3.60011 29.2105 3.24208 29.3463C3.10439 29.3986 2.96887 29.45 2.83971 29.5097C2.78305 29.5356 2.72776 29.5598 2.67388 29.5835C2.28549 29.7537 1.97053 29.8919 1.74827 30.3595C1.54896 30.7262 1.59326 31.2188 1.68025 31.858C1.68943 31.9175 1.69911 31.9778 1.70888 32.0386C1.7951 32.5759 1.88918 33.1621 1.72296 33.6404L1.7198 33.6452V33.6515C1.3465 34.6528 1.35124 35.2936 1.52524 35.6124C1.70398 35.9313 2.08519 36.1449 2.66887 36.2502C2.9927 36.3089 3.36641 36.3431 3.77007 36.3802C4.82356 36.4768 6.08103 36.5921 7.18809 37.2098C8.5721 37.9528 9.95619 38.1648 10.9764 37.9496C11.9967 37.7168 12.6658 37.0728 12.756 35.8867V35.8771C12.8208 35.1772 12.2894 34.3275 11.6028 33.3741C11.4032 33.1091 11.1934 32.8496 10.9867 32.5941C10.4814 31.9691 9.99493 31.3676 9.72212 30.7644L9.71737 30.7597L8.27788 28.1068C7.77651 27.4388 7.25452 26.9957 6.65971 26.908C6.57748 26.8936 6.49526 26.8857 6.4114 26.8857ZM17.2648 12.646C17.4213 12.5657 17.5731 12.4879 17.7196 12.4197L17.7181 12.4213C18.0943 12.1916 18.4586 11.9427 18.8095 11.6752C19.0958 11.3595 19.2445 11.1714 19.042 11.146C18.9222 11.146 18.876 11.2168 18.8093 11.3189C18.7617 11.392 18.7037 11.4811 18.6007 11.5716C18.4166 11.6931 18.2081 11.8493 18.0056 12.0009C17.8548 12.1138 17.7073 12.2242 17.5757 12.3161C17.03 12.6334 16.1315 13.059 15.3644 13.059C14.5968 13.059 13.9848 12.6365 13.5235 12.3181L13.5184 12.3145C13.4335 12.2361 13.3543 12.1574 13.2805 12.0841C13.1548 11.9593 13.0447 11.8499 12.949 11.7836C12.9101 11.7467 12.881 11.6996 12.8522 11.6529C12.7987 11.5665 12.7461 11.4814 12.6341 11.4647C12.5234 11.4647 12.4918 11.7821 12.7512 11.9956C12.8359 12.0572 12.9381 12.1542 13.056 12.2662C13.1427 12.3487 13.238 12.4392 13.3412 12.5297C13.8316 12.8469 14.5086 13.2726 15.3659 13.2726C16.042 13.2726 16.6857 12.9427 17.2648 12.646ZM16.0081 9.86099V9.89603C16.0268 9.95933 16.1047 9.97081 16.1779 9.98168C16.2098 9.98638 16.241 9.99099 16.266 9.99968C16.2908 10.0125 16.3138 10.0283 16.3364 10.0438C16.384 10.0766 16.4299 10.1081 16.489 10.1081C16.5681 10.1081 16.6931 10.081 16.7026 10.0029C16.7184 9.89446 16.565 9.78768 16.4653 9.78768C16.3387 9.7382 16.1711 9.71272 16.054 9.78125C16.0287 9.79403 15.9986 9.82907 16.0081 9.86099ZM14.9588 9.98447C15.0336 9.97351 15.1142 9.9616 15.1366 9.89603V9.8929H15.1318V9.86099C15.1413 9.82907 15.1144 9.79559 15.0844 9.78125C14.9658 9.71429 14.8012 9.73985 14.6747 9.78924C14.5766 9.78924 14.4216 9.89603 14.4374 10.0012C14.4469 10.0778 14.5734 10.1097 14.6526 10.1097C14.7118 10.1097 14.7596 10.0766 14.8083 10.0432C14.8297 10.0284 14.8513 10.0135 14.874 10.0012C14.8984 9.99342 14.9281 9.98899 14.9588 9.98447Z" fill="white"/>
</svg>
