<svg width="31" height="35" viewBox="0 0 31 35" fill="none" xmlns="http://www.w3.org/2000/svg">
<path d="M25.8289 33.5957C23.8259 35.4427 21.6389 35.1511 19.5337 34.2762C17.3059 33.3819 15.2619 33.343 12.9115 34.2762C9.96827 35.4817 8.41492 35.1316 6.65711 33.5957C-3.31708 23.8164 -1.84547 8.92389 9.4777 8.3795C12.237 8.51559 14.1583 9.81817 15.7729 9.93482C18.1847 9.46825 20.4943 8.12675 23.0697 8.30173C26.1559 8.53504 28.486 9.70153 30.0189 11.8013C23.642 15.437 25.1545 23.4276 31 25.6634C29.8349 28.5797 28.3225 31.4766 25.8084 33.6152L25.8289 33.5957ZM15.5685 8.26285C15.2619 3.92728 18.9614 0.349956 23.2127 0C23.8055 5.01604 18.43 8.74889 15.5685 8.26285Z" fill="#ECF9FB"/>
</svg>
