<svg width="20" height="21" viewBox="0 0 20 21" fill="none" xmlns="http://www.w3.org/2000/svg">
<path d="M18.3327 10.5573H1.66602M18.3327 10.5573V15.5573C18.3327 15.9993 18.1571 16.4232 17.8445 16.7358C17.532 17.0484 17.108 17.224 16.666 17.224H3.33268C2.89065 17.224 2.46673 17.0484 2.15417 16.7358C1.84161 16.4232 1.66602 15.9993 1.66602 15.5573V10.5573M18.3327 10.5573L15.4577 4.81563C15.3197 4.53795 15.107 4.30427 14.8435 4.14086C14.58 3.97745 14.2761 3.89079 13.966 3.89062H6.03268C5.72261 3.89079 5.41874 3.97745 5.15522 4.14086C4.8917 4.30427 4.679 4.53795 4.54102 4.81563L1.66602 10.5573M4.99935 13.8906H5.00768M8.33268 13.8906H8.34102" stroke="#B0BAC5" stroke-width="1.66667" stroke-linecap="round" stroke-linejoin="round"/>
</svg>
